<mxfile host="app.diagrams.net" modified="2021-10-21T18:28:39.023Z" agent="5.0 (X11)" etag="Z63oS6uOuCF3KtMS45BG" version="14.4.9" type="github" pages="3">
  <diagram id="fEXeDXgkvvIG-jPlyYwD" name="General">
    <mxGraphModel dx="1662" dy="765" grid="1" gridSize="10" guides="1" tooltips="1" connect="1" arrows="1" fold="1" page="1" pageScale="1" pageWidth="827" pageHeight="1169" math="0" shadow="0">
      <root>
        <mxCell id="0" />
        <mxCell id="1" parent="0" />
        <mxCell id="RGC4h-Sw9r0hPnOn6d4H-1" value="3. Server" style="aspect=fixed;perimeter=ellipsePerimeter;html=1;align=center;shadow=0;dashed=0;spacingTop=3;image;image=img/lib/active_directory/generic_server.svg;" parent="1" vertex="1">
          <mxGeometry x="400" y="280" width="28.000000000000004" height="50" as="geometry" />
        </mxCell>
        <mxCell id="RGC4h-Sw9r0hPnOn6d4H-2" value="" style="aspect=fixed;perimeter=ellipsePerimeter;html=1;align=center;shadow=0;dashed=0;spacingTop=3;image;image=img/lib/active_directory/laptop_client.svg;" parent="1" vertex="1">
          <mxGeometry x="252.5" y="340" width="45" height="50" as="geometry" />
        </mxCell>
        <mxCell id="RGC4h-Sw9r0hPnOn6d4H-3" value="5. Client App" style="html=1;verticalLabelPosition=bottom;align=center;labelBackgroundColor=#ffffff;verticalAlign=top;strokeWidth=2;strokeColor=#0080F0;shadow=0;dashed=0;shape=mxgraph.ios7.icons.smartphone;" parent="1" vertex="1">
          <mxGeometry x="491" y="420" width="18" height="30" as="geometry" />
        </mxCell>
        <mxCell id="RGC4h-Sw9r0hPnOn6d4H-4" value="&lt;div&gt;1. Provider&lt;/div&gt;" style="aspect=fixed;perimeter=ellipsePerimeter;html=1;align=center;shadow=0;dashed=0;spacingTop=3;image;image=img/lib/active_directory/internet_cloud.svg;" parent="1" vertex="1">
          <mxGeometry x="270" y="208.25" width="50" height="31.5" as="geometry" />
        </mxCell>
        <mxCell id="RGC4h-Sw9r0hPnOn6d4H-5" value="" style="aspect=fixed;perimeter=ellipsePerimeter;html=1;align=center;shadow=0;dashed=0;spacingTop=3;image;image=img/lib/active_directory/internet_cloud.svg;" parent="1" vertex="1">
          <mxGeometry x="320" y="163.5" width="50" height="31.5" as="geometry" />
        </mxCell>
        <mxCell id="RGC4h-Sw9r0hPnOn6d4H-6" value="" style="outlineConnect=0;dashed=0;verticalLabelPosition=bottom;verticalAlign=top;align=center;html=1;shape=mxgraph.aws3.hardware_board;fillColor=#5294CF;gradientColor=none;" parent="1" vertex="1">
          <mxGeometry x="469" y="163.5" width="40" height="58" as="geometry" />
        </mxCell>
        <mxCell id="RGC4h-Sw9r0hPnOn6d4H-7" value="2. Station" style="outlineConnect=0;dashed=0;verticalLabelPosition=bottom;verticalAlign=top;align=center;html=1;shape=mxgraph.aws3.hardware_board;fillColor=#5294CF;gradientColor=none;" parent="1" vertex="1">
          <mxGeometry x="522" y="208.25" width="40" height="58" as="geometry" />
        </mxCell>
        <mxCell id="RGC4h-Sw9r0hPnOn6d4H-8" value="" style="html=1;verticalLabelPosition=bottom;align=center;labelBackgroundColor=#ffffff;verticalAlign=top;strokeWidth=2;strokeColor=#0080F0;shadow=0;dashed=0;shape=mxgraph.ios7.icons.smartphone;" parent="1" vertex="1">
          <mxGeometry x="522" y="350" width="18" height="30" as="geometry" />
        </mxCell>
        <mxCell id="RGC4h-Sw9r0hPnOn6d4H-9" value="4. Client PC" style="aspect=fixed;perimeter=ellipsePerimeter;html=1;align=center;shadow=0;dashed=0;spacingTop=3;image;image=img/lib/active_directory/laptop_client.svg;" parent="1" vertex="1">
          <mxGeometry x="287.5" y="400" width="45" height="50" as="geometry" />
        </mxCell>
        <mxCell id="RGC4h-Sw9r0hPnOn6d4H-10" value="" style="endArrow=none;html=1;" parent="1" source="RGC4h-Sw9r0hPnOn6d4H-1" target="RGC4h-Sw9r0hPnOn6d4H-4" edge="1">
          <mxGeometry width="50" height="50" relative="1" as="geometry">
            <mxPoint x="390" y="420" as="sourcePoint" />
            <mxPoint x="440" y="370" as="targetPoint" />
          </mxGeometry>
        </mxCell>
        <mxCell id="RGC4h-Sw9r0hPnOn6d4H-11" value="" style="endArrow=none;html=1;" parent="1" source="RGC4h-Sw9r0hPnOn6d4H-1" target="RGC4h-Sw9r0hPnOn6d4H-5" edge="1">
          <mxGeometry width="50" height="50" relative="1" as="geometry">
            <mxPoint x="410.41144070517703" y="308.9836913045822" as="sourcePoint" />
            <mxPoint x="292.939428660839" y="256.3191504654053" as="targetPoint" />
          </mxGeometry>
        </mxCell>
        <mxCell id="RGC4h-Sw9r0hPnOn6d4H-12" value="" style="endArrow=none;html=1;" parent="1" source="RGC4h-Sw9r0hPnOn6d4H-1" target="RGC4h-Sw9r0hPnOn6d4H-6" edge="1">
          <mxGeometry width="50" height="50" relative="1" as="geometry">
            <mxPoint x="420.41144070517703" y="318.9836913045822" as="sourcePoint" />
            <mxPoint x="302.939428660839" y="266.3191504654053" as="targetPoint" />
          </mxGeometry>
        </mxCell>
        <mxCell id="RGC4h-Sw9r0hPnOn6d4H-13" value="" style="endArrow=none;html=1;" parent="1" source="RGC4h-Sw9r0hPnOn6d4H-1" target="RGC4h-Sw9r0hPnOn6d4H-7" edge="1">
          <mxGeometry width="50" height="50" relative="1" as="geometry">
            <mxPoint x="430.41144070517703" y="328.9836913045822" as="sourcePoint" />
            <mxPoint x="312.939428660839" y="276.3191504654053" as="targetPoint" />
          </mxGeometry>
        </mxCell>
        <mxCell id="RGC4h-Sw9r0hPnOn6d4H-14" value="" style="endArrow=none;html=1;" parent="1" source="RGC4h-Sw9r0hPnOn6d4H-8" target="RGC4h-Sw9r0hPnOn6d4H-1" edge="1">
          <mxGeometry width="50" height="50" relative="1" as="geometry">
            <mxPoint x="440.41144070517703" y="338.9836913045822" as="sourcePoint" />
            <mxPoint x="322.939428660839" y="286.3191504654053" as="targetPoint" />
          </mxGeometry>
        </mxCell>
        <mxCell id="RGC4h-Sw9r0hPnOn6d4H-15" value="" style="endArrow=none;html=1;" parent="1" source="RGC4h-Sw9r0hPnOn6d4H-3" target="RGC4h-Sw9r0hPnOn6d4H-1" edge="1">
          <mxGeometry width="50" height="50" relative="1" as="geometry">
            <mxPoint x="450.41144070517703" y="348.9836913045822" as="sourcePoint" />
            <mxPoint x="332.939428660839" y="296.3191504654053" as="targetPoint" />
          </mxGeometry>
        </mxCell>
        <mxCell id="RGC4h-Sw9r0hPnOn6d4H-16" value="" style="endArrow=none;html=1;" parent="1" source="RGC4h-Sw9r0hPnOn6d4H-9" target="RGC4h-Sw9r0hPnOn6d4H-1" edge="1">
          <mxGeometry width="50" height="50" relative="1" as="geometry">
            <mxPoint x="460.41144070517703" y="358.9836913045822" as="sourcePoint" />
            <mxPoint x="342.939428660839" y="306.3191504654053" as="targetPoint" />
          </mxGeometry>
        </mxCell>
        <mxCell id="RGC4h-Sw9r0hPnOn6d4H-17" value="" style="endArrow=none;html=1;" parent="1" source="RGC4h-Sw9r0hPnOn6d4H-2" target="RGC4h-Sw9r0hPnOn6d4H-1" edge="1">
          <mxGeometry width="50" height="50" relative="1" as="geometry">
            <mxPoint x="470.41144070517703" y="368.9836913045822" as="sourcePoint" />
            <mxPoint x="352.939428660839" y="316.3191504654053" as="targetPoint" />
          </mxGeometry>
        </mxCell>
      </root>
    </mxGraphModel>
  </diagram>
  <diagram id="nBBxQmhq_ujDAmsCTz7V" name="Client-Server-Provider">
    <mxGraphModel dx="1378" dy="631" grid="1" gridSize="10" guides="1" tooltips="1" connect="1" arrows="1" fold="1" page="1" pageScale="1" pageWidth="827" pageHeight="1169" math="0" shadow="0">
      <root>
        <mxCell id="Aw4lRFl4UL7oVRqVylf--0" />
        <mxCell id="Aw4lRFl4UL7oVRqVylf--1" parent="Aw4lRFl4UL7oVRqVylf--0" />
        <mxCell id="Aw4lRFl4UL7oVRqVylf--22" style="edgeStyle=orthogonalEdgeStyle;rounded=0;orthogonalLoop=1;jettySize=auto;html=1;" edge="1" parent="Aw4lRFl4UL7oVRqVylf--1" source="Aw4lRFl4UL7oVRqVylf--2" target="Aw4lRFl4UL7oVRqVylf--5">
          <mxGeometry relative="1" as="geometry">
            <Array as="points">
              <mxPoint x="300" y="230" />
              <mxPoint x="545" y="230" />
            </Array>
          </mxGeometry>
        </mxCell>
        <mxCell id="Aw4lRFl4UL7oVRqVylf--24" value="&lt;div&gt;2.Require forecast&lt;/div&gt;" style="edgeLabel;html=1;align=center;verticalAlign=middle;resizable=0;points=[];" vertex="1" connectable="0" parent="Aw4lRFl4UL7oVRqVylf--22">
          <mxGeometry x="0.134" y="-2" relative="1" as="geometry">
            <mxPoint x="-60.620000000000005" y="-2.06" as="offset" />
          </mxGeometry>
        </mxCell>
        <mxCell id="Aw4lRFl4UL7oVRqVylf--23" style="edgeStyle=orthogonalEdgeStyle;rounded=0;orthogonalLoop=1;jettySize=auto;html=1;" edge="1" parent="Aw4lRFl4UL7oVRqVylf--1" source="Aw4lRFl4UL7oVRqVylf--2" target="Aw4lRFl4UL7oVRqVylf--6">
          <mxGeometry relative="1" as="geometry">
            <Array as="points">
              <mxPoint x="310" y="260" />
              <mxPoint x="470" y="260" />
            </Array>
          </mxGeometry>
        </mxCell>
        <mxCell id="Aw4lRFl4UL7oVRqVylf--25" value="2. Require forecast" style="edgeLabel;html=1;align=center;verticalAlign=middle;resizable=0;points=[];" vertex="1" connectable="0" parent="Aw4lRFl4UL7oVRqVylf--23">
          <mxGeometry x="0.0973" y="1" relative="1" as="geometry">
            <mxPoint x="-14.25" y="0.95" as="offset" />
          </mxGeometry>
        </mxCell>
        <mxCell id="Aw4lRFl4UL7oVRqVylf--32" style="edgeStyle=orthogonalEdgeStyle;rounded=0;orthogonalLoop=1;jettySize=auto;html=1;" edge="1" parent="Aw4lRFl4UL7oVRqVylf--1" source="Aw4lRFl4UL7oVRqVylf--2" target="Aw4lRFl4UL7oVRqVylf--10">
          <mxGeometry relative="1" as="geometry">
            <Array as="points">
              <mxPoint x="200" y="320" />
              <mxPoint x="200" y="320" />
            </Array>
          </mxGeometry>
        </mxCell>
        <mxCell id="Aw4lRFl4UL7oVRqVylf--33" value="4. Response forecasts" style="edgeLabel;html=1;align=center;verticalAlign=middle;resizable=0;points=[];" vertex="1" connectable="0" parent="Aw4lRFl4UL7oVRqVylf--32">
          <mxGeometry x="0.1607" y="2" relative="1" as="geometry">
            <mxPoint x="13.03" y="-1.25" as="offset" />
          </mxGeometry>
        </mxCell>
        <mxCell id="Aw4lRFl4UL7oVRqVylf--2" value="" style="aspect=fixed;perimeter=ellipsePerimeter;html=1;align=center;shadow=0;dashed=0;spacingTop=3;image;image=img/lib/active_directory/generic_server.svg;" vertex="1" parent="Aw4lRFl4UL7oVRqVylf--1">
          <mxGeometry x="290" y="280" width="28.000000000000004" height="50" as="geometry" />
        </mxCell>
        <mxCell id="Aw4lRFl4UL7oVRqVylf--28" style="edgeStyle=orthogonalEdgeStyle;rounded=0;orthogonalLoop=1;jettySize=auto;html=1;" edge="1" parent="Aw4lRFl4UL7oVRqVylf--1" source="Aw4lRFl4UL7oVRqVylf--5" target="Aw4lRFl4UL7oVRqVylf--2">
          <mxGeometry relative="1" as="geometry">
            <Array as="points">
              <mxPoint x="545" y="390" />
              <mxPoint x="300" y="390" />
            </Array>
          </mxGeometry>
        </mxCell>
        <mxCell id="Aw4lRFl4UL7oVRqVylf--31" value="3. Response forecast" style="edgeLabel;html=1;align=center;verticalAlign=middle;resizable=0;points=[];" vertex="1" connectable="0" parent="Aw4lRFl4UL7oVRqVylf--28">
          <mxGeometry x="0.4695" y="-1" relative="1" as="geometry">
            <mxPoint x="51.58" as="offset" />
          </mxGeometry>
        </mxCell>
        <mxCell id="Aw4lRFl4UL7oVRqVylf--5" value="" style="aspect=fixed;perimeter=ellipsePerimeter;html=1;align=center;shadow=0;dashed=0;spacingTop=3;image;image=img/lib/active_directory/internet_cloud.svg;" vertex="1" parent="Aw4lRFl4UL7oVRqVylf--1">
          <mxGeometry x="520" y="289.25" width="50" height="31.5" as="geometry" />
        </mxCell>
        <mxCell id="Aw4lRFl4UL7oVRqVylf--29" style="edgeStyle=orthogonalEdgeStyle;rounded=0;orthogonalLoop=1;jettySize=auto;html=1;" edge="1" parent="Aw4lRFl4UL7oVRqVylf--1" source="Aw4lRFl4UL7oVRqVylf--6" target="Aw4lRFl4UL7oVRqVylf--2">
          <mxGeometry relative="1" as="geometry">
            <Array as="points">
              <mxPoint x="475" y="360" />
              <mxPoint x="310" y="360" />
            </Array>
          </mxGeometry>
        </mxCell>
        <mxCell id="Aw4lRFl4UL7oVRqVylf--30" value="&lt;div&gt;3. Response forecast&lt;/div&gt;" style="edgeLabel;html=1;align=center;verticalAlign=middle;resizable=0;points=[];" vertex="1" connectable="0" parent="Aw4lRFl4UL7oVRqVylf--29">
          <mxGeometry x="0.4507" relative="1" as="geometry">
            <mxPoint x="47.42" as="offset" />
          </mxGeometry>
        </mxCell>
        <mxCell id="Aw4lRFl4UL7oVRqVylf--6" value="" style="aspect=fixed;perimeter=ellipsePerimeter;html=1;align=center;shadow=0;dashed=0;spacingTop=3;image;image=img/lib/active_directory/internet_cloud.svg;" vertex="1" parent="Aw4lRFl4UL7oVRqVylf--1">
          <mxGeometry x="450" y="289.25" width="50" height="31.5" as="geometry" />
        </mxCell>
        <mxCell id="Aw4lRFl4UL7oVRqVylf--20" style="edgeStyle=orthogonalEdgeStyle;rounded=0;orthogonalLoop=1;jettySize=auto;html=1;" edge="1" parent="Aw4lRFl4UL7oVRqVylf--1" source="Aw4lRFl4UL7oVRqVylf--10">
          <mxGeometry relative="1" as="geometry">
            <mxPoint x="290" y="290" as="targetPoint" />
            <Array as="points">
              <mxPoint x="290" y="290" />
            </Array>
          </mxGeometry>
        </mxCell>
        <mxCell id="Aw4lRFl4UL7oVRqVylf--21" value="&lt;div&gt;1.Require forecasts&lt;/div&gt;" style="edgeLabel;html=1;align=center;verticalAlign=middle;resizable=0;points=[];" vertex="1" connectable="0" parent="Aw4lRFl4UL7oVRqVylf--20">
          <mxGeometry x="0.1441" relative="1" as="geometry">
            <mxPoint x="-13" y="-0.75" as="offset" />
          </mxGeometry>
        </mxCell>
        <mxCell id="Aw4lRFl4UL7oVRqVylf--10" value="" style="aspect=fixed;perimeter=ellipsePerimeter;html=1;align=center;shadow=0;dashed=0;spacingTop=3;image;image=img/lib/active_directory/laptop_client.svg;" vertex="1" parent="Aw4lRFl4UL7oVRqVylf--1">
          <mxGeometry x="70" y="280" width="45" height="50" as="geometry" />
        </mxCell>
      </root>
    </mxGraphModel>
  </diagram>
  <diagram id="sMZUbyAfxOfEGztQ2zZe" name="Forecast request flow">
    <mxGraphModel dx="1391" dy="679" grid="1" gridSize="10" guides="1" tooltips="1" connect="1" arrows="1" fold="1" page="1" pageScale="1" pageWidth="827" pageHeight="1169" math="0" shadow="0">
      <root>
        <mxCell id="1N5AsAJIesdyxcbTU3Fx-0" />
        <mxCell id="1N5AsAJIesdyxcbTU3Fx-1" parent="1N5AsAJIesdyxcbTU3Fx-0" />
        <mxCell id="XPn1lnfOIxJxu-GHkoCO-16" value="&lt;div&gt;Client&lt;/div&gt;" style="shape=umlLifeline;perimeter=lifelinePerimeter;whiteSpace=wrap;html=1;container=1;collapsible=0;recursiveResize=0;outlineConnect=0;" vertex="1" parent="1N5AsAJIesdyxcbTU3Fx-1">
          <mxGeometry x="130" y="360" width="100" height="540" as="geometry" />
        </mxCell>
        <mxCell id="XPn1lnfOIxJxu-GHkoCO-17" value="Server" style="shape=umlLifeline;perimeter=lifelinePerimeter;whiteSpace=wrap;html=1;container=1;collapsible=0;recursiveResize=0;outlineConnect=0;" vertex="1" parent="1N5AsAJIesdyxcbTU3Fx-1">
          <mxGeometry x="280" y="360" width="100" height="470" as="geometry" />
        </mxCell>
        <mxCell id="XPn1lnfOIxJxu-GHkoCO-19" value="" style="html=1;points=[];perimeter=orthogonalPerimeter;" vertex="1" parent="XPn1lnfOIxJxu-GHkoCO-17">
          <mxGeometry x="45" y="50" width="10" height="130" as="geometry" />
        </mxCell>
        <mxCell id="XPn1lnfOIxJxu-GHkoCO-34" value="" style="html=1;points=[];perimeter=orthogonalPerimeter;" vertex="1" parent="XPn1lnfOIxJxu-GHkoCO-17">
          <mxGeometry x="55" y="107.5" width="10" height="240" as="geometry" />
        </mxCell>
        <mxCell id="XPn1lnfOIxJxu-GHkoCO-35" value="&lt;div&gt;2. Prepare&lt;/div&gt;&lt;div&gt;&amp;nbsp;&amp;nbsp;&amp;nbsp; first request&lt;br&gt;&lt;/div&gt;" style="edgeStyle=orthogonalEdgeStyle;html=1;align=left;spacingLeft=2;endArrow=block;rounded=0;" edge="1" parent="XPn1lnfOIxJxu-GHkoCO-17">
          <mxGeometry relative="1" as="geometry">
            <mxPoint x="55" y="80" as="sourcePoint" />
            <Array as="points">
              <mxPoint x="100" y="80" />
              <mxPoint x="100" y="138" />
            </Array>
            <mxPoint x="55" y="138" as="targetPoint" />
          </mxGeometry>
        </mxCell>
        <mxCell id="XPn1lnfOIxJxu-GHkoCO-36" value="" style="html=1;points=[];perimeter=orthogonalPerimeter;" vertex="1" parent="XPn1lnfOIxJxu-GHkoCO-17">
          <mxGeometry x="65" y="160" width="10" height="240" as="geometry" />
        </mxCell>
        <mxCell id="XPn1lnfOIxJxu-GHkoCO-37" value="&lt;div&gt;3. Prepare&lt;/div&gt;&lt;div&gt;&amp;nbsp;&amp;nbsp;&amp;nbsp; second&lt;/div&gt;&lt;div&gt;&amp;nbsp;&amp;nbsp;&amp;nbsp; request&lt;br&gt;&lt;/div&gt;" style="edgeStyle=orthogonalEdgeStyle;html=1;align=left;spacingLeft=2;endArrow=block;rounded=0;exitX=1.029;exitY=0.871;exitDx=0;exitDy=0;exitPerimeter=0;entryX=1.029;entryY=0.127;entryDx=0;entryDy=0;entryPerimeter=0;" edge="1" target="XPn1lnfOIxJxu-GHkoCO-36" parent="XPn1lnfOIxJxu-GHkoCO-17" source="XPn1lnfOIxJxu-GHkoCO-19">
          <mxGeometry x="0.6407" y="10" relative="1" as="geometry">
            <mxPoint x="50" y="90" as="sourcePoint" />
            <Array as="points">
              <mxPoint x="55" y="102" />
              <mxPoint x="90" y="102" />
              <mxPoint x="90" y="183" />
            </Array>
            <mxPoint x="55" y="210" as="targetPoint" />
            <mxPoint as="offset" />
          </mxGeometry>
        </mxCell>
        <mxCell id="XPn1lnfOIxJxu-GHkoCO-20" value="1. Require forecasts" style="html=1;verticalAlign=bottom;startArrow=oval;endArrow=block;startSize=8;" edge="1" target="XPn1lnfOIxJxu-GHkoCO-19" parent="1N5AsAJIesdyxcbTU3Fx-1" source="XPn1lnfOIxJxu-GHkoCO-16">
          <mxGeometry relative="1" as="geometry">
            <mxPoint x="220" y="450" as="sourcePoint" />
            <Array as="points">
              <mxPoint x="210" y="420" />
            </Array>
          </mxGeometry>
        </mxCell>
        <mxCell id="XPn1lnfOIxJxu-GHkoCO-22" value="4. Execute first request" style="html=1;verticalAlign=bottom;startArrow=oval;endArrow=block;startSize=8;" edge="1" target="XPn1lnfOIxJxu-GHkoCO-21" parent="1N5AsAJIesdyxcbTU3Fx-1" source="XPn1lnfOIxJxu-GHkoCO-34">
          <mxGeometry relative="1" as="geometry">
            <mxPoint x="525.5" y="740" as="sourcePoint" />
            <Array as="points">
              <mxPoint x="370" y="580" />
              <mxPoint x="490" y="580" />
            </Array>
          </mxGeometry>
        </mxCell>
        <mxCell id="XPn1lnfOIxJxu-GHkoCO-23" value="Provider 1" style="shape=umlLifeline;perimeter=lifelinePerimeter;whiteSpace=wrap;html=1;container=1;collapsible=0;recursiveResize=0;outlineConnect=0;" vertex="1" parent="1N5AsAJIesdyxcbTU3Fx-1">
          <mxGeometry x="530" y="505" width="100" height="215" as="geometry" />
        </mxCell>
        <mxCell id="XPn1lnfOIxJxu-GHkoCO-21" value="" style="html=1;points=[];perimeter=orthogonalPerimeter;" vertex="1" parent="XPn1lnfOIxJxu-GHkoCO-23">
          <mxGeometry x="45" y="60" width="10" height="90" as="geometry" />
        </mxCell>
        <mxCell id="XPn1lnfOIxJxu-GHkoCO-24" value="Provider 2" style="shape=umlLifeline;perimeter=lifelinePerimeter;whiteSpace=wrap;html=1;container=1;collapsible=0;recursiveResize=0;outlineConnect=0;" vertex="1" parent="1N5AsAJIesdyxcbTU3Fx-1">
          <mxGeometry x="650" y="550" width="100" height="180" as="geometry" />
        </mxCell>
        <mxCell id="XPn1lnfOIxJxu-GHkoCO-25" value="" style="html=1;points=[];perimeter=orthogonalPerimeter;" vertex="1" parent="XPn1lnfOIxJxu-GHkoCO-24">
          <mxGeometry x="45" y="60" width="10" height="90" as="geometry" />
        </mxCell>
        <mxCell id="XPn1lnfOIxJxu-GHkoCO-26" value="5. Execute second request" style="html=1;verticalAlign=bottom;startArrow=oval;endArrow=block;startSize=8;" edge="1" target="XPn1lnfOIxJxu-GHkoCO-25" parent="1N5AsAJIesdyxcbTU3Fx-1" source="XPn1lnfOIxJxu-GHkoCO-36">
          <mxGeometry x="-0.441" relative="1" as="geometry">
            <mxPoint x="526.5" y="770" as="sourcePoint" />
            <Array as="points">
              <mxPoint x="540" y="608" />
            </Array>
            <mxPoint as="offset" />
          </mxGeometry>
        </mxCell>
        <mxCell id="XPn1lnfOIxJxu-GHkoCO-27" value="6. Response forecast" style="html=1;verticalAlign=bottom;endArrow=open;dashed=1;endSize=8;" edge="1" parent="1N5AsAJIesdyxcbTU3Fx-1" source="XPn1lnfOIxJxu-GHkoCO-23" target="XPn1lnfOIxJxu-GHkoCO-34">
          <mxGeometry relative="1" as="geometry">
            <mxPoint x="651.5" y="800" as="sourcePoint" />
            <mxPoint x="525.5" y="830" as="targetPoint" />
            <Array as="points">
              <mxPoint x="430" y="640" />
              <mxPoint x="390" y="640" />
            </Array>
          </mxGeometry>
        </mxCell>
        <mxCell id="XPn1lnfOIxJxu-GHkoCO-28" value="8. Response forecast" style="html=1;verticalAlign=bottom;endArrow=open;dashed=1;endSize=8;" edge="1" parent="1N5AsAJIesdyxcbTU3Fx-1" source="XPn1lnfOIxJxu-GHkoCO-25" target="XPn1lnfOIxJxu-GHkoCO-36">
          <mxGeometry x="0.441" relative="1" as="geometry">
            <mxPoint x="510.5" y="870" as="sourcePoint" />
            <mxPoint x="520" y="870" as="targetPoint" />
            <Array as="points">
              <mxPoint x="560" y="685" />
            </Array>
            <mxPoint as="offset" />
          </mxGeometry>
        </mxCell>
        <mxCell id="XPn1lnfOIxJxu-GHkoCO-30" value="" style="shape=umlDestroy;whiteSpace=wrap;html=1;strokeWidth=3;" vertex="1" parent="1N5AsAJIesdyxcbTU3Fx-1">
          <mxGeometry x="565" y="710" width="30" height="30" as="geometry" />
        </mxCell>
        <mxCell id="XPn1lnfOIxJxu-GHkoCO-31" value="" style="shape=umlDestroy;whiteSpace=wrap;html=1;strokeWidth=3;" vertex="1" parent="1N5AsAJIesdyxcbTU3Fx-1">
          <mxGeometry x="685" y="720" width="30" height="30" as="geometry" />
        </mxCell>
        <mxCell id="XPn1lnfOIxJxu-GHkoCO-39" value="7. Response first result" style="html=1;verticalAlign=bottom;endArrow=open;dashed=1;endSize=8;" edge="1" parent="1N5AsAJIesdyxcbTU3Fx-1" source="XPn1lnfOIxJxu-GHkoCO-34" target="XPn1lnfOIxJxu-GHkoCO-16">
          <mxGeometry relative="1" as="geometry">
            <mxPoint x="480" y="620" as="sourcePoint" />
            <mxPoint x="400" y="620" as="targetPoint" />
            <Array as="points">
              <mxPoint x="310" y="670" />
              <mxPoint x="250" y="670" />
              <mxPoint x="220" y="670" />
            </Array>
          </mxGeometry>
        </mxCell>
        <mxCell id="XPn1lnfOIxJxu-GHkoCO-42" value="9. Response second result" style="html=1;verticalAlign=bottom;endArrow=open;dashed=1;endSize=8;" edge="1" parent="1N5AsAJIesdyxcbTU3Fx-1" source="XPn1lnfOIxJxu-GHkoCO-36" target="XPn1lnfOIxJxu-GHkoCO-16">
          <mxGeometry x="0.0299" relative="1" as="geometry">
            <mxPoint x="480" y="670" as="sourcePoint" />
            <mxPoint x="400" y="670" as="targetPoint" />
            <Array as="points">
              <mxPoint x="280" y="755" />
              <mxPoint x="210" y="755" />
            </Array>
            <mxPoint as="offset" />
          </mxGeometry>
        </mxCell>
        <mxCell id="XPn1lnfOIxJxu-GHkoCO-43" value="" style="shape=umlDestroy;whiteSpace=wrap;html=1;strokeWidth=3;" vertex="1" parent="1N5AsAJIesdyxcbTU3Fx-1">
          <mxGeometry x="315" y="820" width="30" height="30" as="geometry" />
        </mxCell>
        <mxCell id="XPn1lnfOIxJxu-GHkoCO-45" value="" style="shape=umlDestroy;whiteSpace=wrap;html=1;strokeWidth=3;" vertex="1" parent="1N5AsAJIesdyxcbTU3Fx-1">
          <mxGeometry x="165" y="890" width="30" height="30" as="geometry" />
        </mxCell>
      </root>
    </mxGraphModel>
  </diagram>
</mxfile>
